<svg height="512pt" viewBox="0 0 512 512" width="512pt" xmlns="http://www.w3.org/2000/svg"><path d="m512 256c0 36.300781-7.554688 70.832031-21.179688 102.117188-27.117187 62.265624-78.253906 111.636718-141.71875 136.414062-8.539062 3.339844-17.304687 6.234375-26.269531 8.648438-21.304687 5.757812-43.707031 8.820312-66.832031 8.820312-16.625 0-32.871094-1.578125-48.609375-4.609375-8.933594-1.710937-17.699219-3.894531-26.277344-6.519531-59.226562-18.085938-109.339843-57.082032-141.71875-108.375-24.953125-39.507813-39.394531-86.308594-39.394531-136.496094 0-141.386719 114.613281-256 256-256 30.65625 0 60.0625 5.390625 87.300781 15.277344 66.140625 23.988281 119.589844 74.457031 147.519531 138.605468 13.625 31.285157 21.179688 65.816407 21.179688 102.117188zm0 0" fill="#f26065"/><path d="m207.390625 260.230469v247.160156c-8.933594-1.710937-17.699219-3.894531-26.277344-6.519531-10.210937-3.125-20.15625-6.863282-29.78125-11.179688-46.203125-20.71875-85.136719-54.742187-111.9375-97.195312v-132.265625zm0 0" fill="#40c4ad"/><path d="m207.390625 260.230469v247.160156c-8.933594-1.710937-17.699219-3.894531-26.277344-6.519531-10.210937-3.125-20.15625-6.863282-29.78125-11.179688v-229.460937zm0 0" fill="#15b2a2"/><path d="m100.503906 397.957031v-2.589843c0-10.082032-6.265625-12.941407-14.984375-12.941407-3.953125 0-5.3125-3.40625-5.3125-6.949219 0-3.40625 1.359375-6.949218 5.3125-6.949218 6.8125 0 12.53125-1.632813 12.53125-13.351563 0-8.992187-4.628906-11.988281-11.988281-11.988281-8.855469 0-12.125 3.679688-12.125 9.128906 0 4.085938-1.90625 6.8125-8.445312 6.8125-7.902344 0-9.128907-1.910156-9.128907-7.628906 0-9.675781 6.8125-23.707031 29.835938-23.707031 16.484375 0 28.746093 6.265625 28.746093 24.386719 0 10.761718-3.949218 19.480468-10.625 22.617187 8.039063 3.132813 13.894532 9.261719 13.894532 20.570313v2.589843c0 21.933594-14.714844 30.246094-32.695313 30.246094-22.347656 0-31.335937-13.761719-31.335937-24.796875 0-5.449219 2.316406-6.945312 8.445312-6.945312 7.222656 0 9.128906 1.90625 9.128906 6.265624 0 6.128907 5.449219 9.945313 14.167969 9.945313 10.21875-.003906 14.578125-4.363281 14.578125-14.714844zm0 0" fill="#fff"/><path d="m128.707031 397v-38.007812c0-22.753907 13.898438-31.203126 31.882813-31.203126 17.980468 0 32.015625 8.449219 32.015625 31.203126v38.007812c0 22.753906-14.035157 31.199219-32.015625 31.199219-17.984375 0-31.882813-8.445313-31.882813-31.199219zm46.1875-38.007812c0-10.765626-5.449219-15.671876-14.304687-15.671876-8.992188 0-14.171875 4.90625-14.171875 15.671876v38.007812c0 10.765625 5.179687 15.667969 14.171875 15.667969 8.855468 0 14.304687-4.902344 14.304687-15.667969zm0 0" fill="#fff"/><path d="m349.101562 117.601562v376.929688c-8.539062 3.339844-17.304687 6.234375-26.269531 8.648438-9.71875 2.625-19.644531 4.691406-29.78125 6.15625-12.097656 1.753906-24.46875 2.664062-37.050781 2.664062-26.058594 0-51.199219-3.886719-74.886719-11.128906v-383.269532zm0 0" fill="#ffe662"/><path d="m349.101562 117.601562v376.929688c-8.539062 3.339844-17.304687 6.234375-26.269531 8.648438-9.71875 2.625-19.644531 4.691406-29.78125 6.15625v-391.734376zm0 0" fill="#ffb525"/><g fill="#fff"><path d="m202.796875 360.136719v-23.316407c0-16.257812 10.671875-22.167968 24.628906-22.167968 13.792969 0 24.628907 5.910156 24.628907 22.167968v23.316407c0 16.253906-10.835938 22.167969-24.628907 22.167969-13.957031 0-24.628906-5.914063-24.628906-22.167969zm32.839844-23.316407c0-5.421874-3.121094-7.882812-8.210938-7.882812-5.089843 0-8.046875 2.460938-8.046875 7.882812v23.316407c0 5.417969 2.957032 7.878906 8.046875 7.878906 5.089844 0 8.210938-2.460937 8.210938-7.878906zm67.320312-20.199218c0 .988281-.164062 2.136718-.65625 3.121094l-57.796875 118.390624c-1.148437 2.460938-4.269531 4.105469-7.390625 4.105469-5.582031 0-9.195312-4.597656-9.195312-8.703125 0-.984375.328125-2.136718.820312-3.121094l57.636719-118.390624c1.3125-2.789063 3.9375-4.101563 6.894531-4.101563 4.597657 0 9.6875 3.445313 9.6875 8.699219zm-24.792969 96.386718v-23.316406c0-16.253906 10.675782-22.167968 24.628907-22.167968 13.792969 0 24.632812 5.914062 24.632812 22.167968v23.316406c0 16.257813-10.839843 22.167969-24.632812 22.167969-13.957031 0-24.628907-5.910156-24.628907-22.167969zm32.839844-23.316406c0-5.417968-3.121094-7.882812-8.210937-7.882812-5.089844 0-8.046875 2.464844-8.046875 7.882812v23.316406c0 5.417969 2.957031 7.882813 8.046875 7.882813 5.089843 0 8.210937-2.464844 8.210937-7.882813zm0 0"/><path d="m228.460938 225.820312c17.984374 0 32.015624 7.765626 32.015624 29.15625v2.585938c0 22.34375-14.167968 30.65625-31.742187 30.65625-20.84375 0-32.152344-11.988281-32.152344-24.660156 0-6.265625 3.269531-8.039063 8.855469-8.039063 7.492188 0 8.855469 2.996094 8.855469 6.8125 0 6.675781 6.128906 10.355469 14.03125 10.355469 8.992187 0 14.441406-4.769531 14.441406-15.125v-2.585938c0-10.355468-5.449219-15.261718-14.304687-15.261718h-20.164063c-5.585937 0-7.085937-2.722656-7.085937-6.945313 0-1.089843.140624-2.316406.140624-3.542969l3.539063-35.832031c.273437-3.40625 1.363281-5.585937 3.40625-5.585937h41.964844c3.539062 0 5.3125 3.949218 5.3125 7.765625 0 3.949219-1.773438 7.765625-5.3125 7.765625h-30.65625l-1.632813 22.476562h10.488282zm0 0"/><path d="m269.742188 257.019531v-38.011719c0-22.75 13.898437-31.199218 31.882812-31.199218 17.980469 0 32.015625 8.449218 32.015625 31.199218v38.011719c0 22.753907-14.035156 31.199219-32.015625 31.199219-17.984375 0-31.882812-8.445312-31.882812-31.199219zm46.1875-38.011719c0-10.761718-5.449219-15.667968-14.304688-15.667968-8.992188 0-14.171875 4.90625-14.171875 15.667968v38.011719c0 10.761719 5.179687 15.667969 14.171875 15.667969 8.855469 0 14.304688-4.90625 14.304688-15.667969zm0 0"/></g><path d="m490.820312 15.277344v342.839844c-30.761718 70.644531-92.464843 124.699218-167.988281 145.0625v-487.902344zm0 0" fill="#349cdd"/><path d="m402.875 84.570312c0 2.859376-1.769531 7.082032-3.40625 10.351563l-34.46875 66.214844c-.953125 1.769531-2.726562 2.585937-5.042969 2.585937-5.585937 0-11.171875-3.8125-11.171875-8.855468 0-1.089844.136719-2.042969.820313-3.132813l35.558593-63.761719v-8.992187h-28.472656v11.039062c0 3.269531-4.363281 5.71875-8.996094 5.71875-4.765624 0-8.71875-2.449219-8.71875-5.71875v-20.980469c0-2.726562 3.816407-5.585937 7.765626-5.585937h48.367187c3.40625 0 7.761719 2.859375 7.761719 5.585937v15.53125zm0 0" fill="#fff"/><path d="m410.777344 132.660156v-38.007812c0-22.753906 13.894531-31.199219 31.878906-31.199219s32.019531 8.445313 32.019531 31.199219v38.011718c0 22.75-14.035156 31.199219-32.019531 31.199219s-31.878906-8.449219-31.878906-31.203125zm46.183594-38.007812c0-10.765625-5.449219-15.667969-14.304688-15.667969-8.988281 0-14.167969 4.902344-14.167969 15.667969v38.011718c0 10.761719 5.179688 15.667969 14.167969 15.667969 8.855469 0 14.304688-4.90625 14.304688-15.667969zm0 0" fill="#fff"/><path d="m344.511719 232.964844v-23.316406c0-16.253907 10.671875-22.167969 24.628906-22.167969 13.792969 0 24.628906 5.910156 24.628906 22.167969v23.316406c0 16.253906-10.835937 22.167968-24.628906 22.167968-13.957031 0-24.628906-5.914062-24.628906-22.167968zm32.839843-23.316406c0-5.417969-3.121093-7.882813-8.210937-7.882813s-8.042969 2.464844-8.042969 7.882813v23.316406c0 5.417968 2.953125 7.882812 8.042969 7.882812s8.210937-2.464844 8.210937-7.882812zm67.324219-20.195313c0 .984375-.164062 2.132813-.65625 3.117187l-57.800781 118.390626c-1.148438 2.460937-4.269531 4.105468-7.390625 4.105468-5.582031 0-9.195313-4.597656-9.195313-8.703125 0-.984375.332032-2.136719.824219-3.121093l57.632813-118.386719c1.3125-2.792969 3.941406-4.105469 6.898437-4.105469 4.597657 0 9.6875 3.449219 9.6875 8.703125zm-24.796875 96.382813v-23.316407c0-16.253906 10.675782-22.164062 24.628906-22.164062 13.792969 0 24.632813 5.910156 24.632813 22.164062v23.316407c0 16.257812-10.839844 22.167968-24.632813 22.167968-13.953124 0-24.628906-5.910156-24.628906-22.167968zm32.839844-23.316407c0-5.417969-3.117188-7.878906-8.207031-7.878906-5.089844 0-8.046875 2.460937-8.046875 7.878906v23.316407c0 5.421874 2.957031 7.882812 8.046875 7.882812 5.089843 0 8.207031-2.460938 8.207031-7.882812zm0 0" fill="#fff"/></svg>