<svg id="Layer_3" height="512" viewBox="0 0 64 64" width="512" xmlns="http://www.w3.org/2000/svg" data-name="Layer 3"><path d="m8 22 1 28h4l1-28z" fill="#594139"/><path d="m8.786 44 .214 6h4l.214-6z" fill="#f3a845"/><path d="m50 22 1 28h4l1-28z" fill="#594139"/><path d="m50.786 44 .214 6h4l.214-6z" fill="#f3a845"/><path d="m4 18h56v4h-56z" fill="#4b352f"/><path d="m2 14h60v4h-60z" fill="#3b2824"/><path d="m2 16h56a2 2 0 0 0 2-2h-58z" fill="#4b352f"/><path d="m9 14 23 23 23-23z" fill="#f3a845"/><path d="m14 14 18 18 18-18z" fill="#aa2b24"/><path d="m38 20v-6h-24l10 10h10a4 4 0 0 0 4-4z" fill="#d24034"/><rect fill="#db665d" height="4" rx="2" width="10" x="22" y="16"/><path d="m62 13h-60a1 1 0 0 0 -1 1v4a1 1 0 0 0 1 1h1v3a1 1 0 0 0 1 1h3.035l.965 27.036a1 1 0 0 0 1 .964h4a1 1 0 0 0 1-.964l.965-27.036h1.621l14.707 14.707a1 1 0 0 0 1.414 0l14.707-14.707h1.621l.965 27.036a1 1 0 0 0 1 .964h4a1 1 0 0 0 1-.964l.965-27.036h3.035a1 1 0 0 0 1-1v-3h1a1 1 0 0 0 1-1v-4a1 1 0 0 0 -1-1zm-14.414 2-15.586 15.586-15.586-15.586zm-44.586 0h5.586l2 2h-7.586zm6.965 34-.143-4h2.356l-.143 4zm2.284-6h-2.5l-.713-20h3.928zm-7.249-22v-2h7.586l2 2zm27 14.586-20.586-20.586h2.172l17.707 17.707a1 1 0 0 0 1.414 0l17.707-17.707h2.172zm19.965 13.414-.143-4h2.356l-.143 4zm2.284-6h-2.5l-.715-20h3.928zm4.751-22h-9.586l2-2h7.586zm2-4h-7.586l2-2h5.586z"/></svg>